<?xml version="1.0" standalone="no"?>
<!DOCTYPE svg PUBLIC "-//W3C//DTD SVG 20010904//EN"
 "http://www.w3.org/TR/2001/REC-SVG-20010904/DTD/svg10.dtd">
<svg version="1.0" xmlns="http://www.w3.org/2000/svg"
 width="510.000000pt" height="448.000000pt" viewBox="0 0 510.000000 448.000000"
 preserveAspectRatio="xMidYMid meet">

<g transform="translate(0.000000,448.000000) scale(0.100000,-0.100000)"
fill="#000000" stroke="none">
<path d="M2983 3402 c-132 -225 -273 -497 -273 -525 0 -7 13 -28 29 -46 47
-53 397 -645 804 -1361 282 -497 601 -1052 714 -1245 73 -124 108 -174 129
-185 36 -18 323 -25 556 -13 l157 8 -682 1185 c-764 1326 -1281 2213 -1342
2302 -10 16 -22 0 -92 -120z"/>
<path d="M1712 1223 c-152 -263 -252 -457 -252 -489 0 -23 127 -263 259 -490
l122 -211 181 -6 c230 -9 436 -9 478 -1 17 4 34 13 37 20 2 7 -39 91 -92 186
-195 350 -640 1127 -646 1128 -4 0 -43 -62 -87 -137z"/>
</g>
</svg>
